<?xml version="1.0" standalone="no"?>
<!DOCTYPE svg PUBLIC "-//W3C//DTD SVG 20010904//EN"
 "http://www.w3.org/TR/2001/REC-SVG-20010904/DTD/svg10.dtd">
<svg version="1.0" xmlns="http://www.w3.org/2000/svg"
 width="1280.000000pt" height="1206.000000pt" viewBox="0 0 1280.000000 1206.000000"
 preserveAspectRatio="xMidYMid meet">
<metadata>
Created by potrace 1.15, written by Peter Selinger 2001-2017
</metadata>
<g transform="translate(0.000000,1206.000000) scale(0.100000,-0.100000)"
fill="#000000" stroke="none">
<path d="M6335 12039 c-38 -12 -108 -24 -155 -27 -95 -8 -164 -38 -232 -103
-32 -30 -38 -42 -38 -77 0 -37 -7 -48 -73 -119 -54 -58 -93 -114 -145 -209
l-72 -130 0 -81 c0 -94 -13 -117 -71 -127 -26 -5 -42 -1 -60 12 -13 10 -64 44
-114 75 -103 64 -160 119 -260 249 -38 50 -82 100 -96 111 -25 18 -28 18 -58
3 -17 -9 -31 -19 -31 -21 0 -3 20 -32 45 -66 25 -33 50 -80 56 -102 6 -23 19
-51 29 -62 36 -41 40 -60 24 -114 -17 -59 -23 -63 -159 -121 -123 -53 -165
-82 -165 -116 0 -16 -6 -24 -18 -24 -18 0 -121 -68 -165 -108 -96 -88 -140
-138 -167 -192 -17 -34 -44 -80 -61 -102 -31 -44 -38 -68 -14 -48 12 10 15 10
15 -3 0 -9 -24 -34 -53 -55 -28 -21 -59 -47 -67 -56 -8 -10 -39 -34 -70 -53
-151 -96 -289 -284 -349 -477 -28 -92 -26 -129 12 -206 32 -65 39 -72 91 -90
40 -14 22 -30 -44 -41 -107 -17 -154 -70 -196 -219 -47 -169 -137 -331 -284
-510 -21 -25 -43 -63 -50 -85 -7 -22 -34 -62 -60 -90 -43 -45 -48 -56 -53
-107 -3 -35 -15 -74 -31 -100 -54 -93 -44 -180 44 -400 81 -201 120 -274 185
-346 82 -90 227 -159 474 -226 178 -48 443 -139 565 -192 97 -42 207 -77 468
-145 71 -19 128 -37 128 -40 0 -15 -255 -251 -342 -317 -428 -321 -904 -566
-1978 -1019 -616 -259 -749 -327 -779 -401 -10 -23 -46 -44 -234 -132 -427
-199 -922 -451 -1197 -608 -172 -98 -493 -301 -512 -324 -10 -11 -18 -34 -18
-50 l0 -31 63 5 c82 7 182 43 482 175 449 198 692 277 1020 332 66 11 148 22
181 26 76 8 78 4 68 -116 -6 -85 -6 -88 36 -195 24 -60 52 -119 64 -131 18
-19 44 -25 206 -43 233 -27 306 -42 444 -91 77 -28 152 -46 246 -60 74 -11
142 -21 150 -24 30 -9 248 -45 363 -60 328 -42 449 -11 814 211 96 59 178 103
182 98 14 -16 107 -263 155 -414 26 -80 53 -165 61 -189 l14 -43 -56 -59 c-89
-93 -143 -119 -143 -69 0 28 -73 64 -100 50 -17 -9 -22 -6 -37 27 -14 30 -28
41 -61 53 l-44 15 -29 -35 c-28 -33 -31 -34 -42 -16 -34 53 -53 68 -89 69 -22
1 -45 -6 -56 -16 -26 -23 -29 -22 -36 18 -8 39 -22 50 -83 60 -40 6 -41 5 -48
-24 -3 -16 -13 -35 -21 -42 -12 -10 -20 -7 -42 18 -18 21 -40 33 -65 36 -32 5
-40 2 -53 -19 -22 -32 -40 -30 -53 6 -10 29 -12 30 -70 30 l-61 0 0 -40 c0
-46 -13 -51 -53 -19 -20 15 -38 19 -74 17 -44 -3 -48 -5 -57 -35 -11 -41 -32
-42 -54 -3 -19 34 -51 39 -107 16 -31 -13 -34 -17 -28 -49 7 -44 -7 -52 -42
-25 -26 20 -29 20 -68 6 -35 -12 -43 -21 -50 -51 l-9 -37 -32 25 c-39 29 -53
31 -101 8 -32 -15 -35 -20 -35 -60 0 -45 -7 -50 -41 -33 -15 9 -28 6 -58 -11
-32 -18 -40 -29 -45 -60 -3 -22 -9 -39 -12 -39 -4 0 -22 9 -40 21 -30 18 -36
19 -61 6 -59 -31 -70 -56 -48 -109 6 -15 2 -18 -25 -18 -18 0 -48 -9 -66 -21
-29 -17 -34 -26 -34 -58 l0 -38 -49 5 c-44 4 -53 1 -77 -23 -24 -24 -26 -32
-21 -76 5 -38 3 -49 -8 -49 -7 0 -27 -12 -44 -26 -23 -19 -31 -34 -31 -57 0
-18 -3 -42 -6 -55 -6 -22 -7 -22 -25 -6 -17 15 -22 16 -44 4 -47 -25 -83 -108
-55 -125 16 -10 12 -19 -20 -60 -21 -26 -30 -49 -30 -74 0 -45 -8 -58 -43 -66
-52 -13 -84 -106 -49 -139 19 -16 18 -18 -4 -63 -15 -29 -24 -64 -24 -94 0
-37 -4 -48 -19 -52 -26 -6 -49 -44 -57 -94 -6 -39 -4 -43 21 -55 24 -11 26
-15 19 -47 -4 -20 -8 -61 -9 -91 0 -38 -7 -66 -23 -90 -22 -35 -27 -75 -16
-118 5 -17 14 -22 38 -22 l31 0 -1 -100 c-1 -55 -7 -120 -14 -144 -10 -35 -9
-49 3 -79 13 -31 20 -36 53 -39 l38 -3 -3 -52 c-1 -30 3 -63 12 -80 8 -15 17
-59 20 -96 6 -83 33 -122 74 -106 39 15 43 11 43 -33 0 -48 21 -95 51 -116 13
-9 18 -20 14 -33 -9 -28 11 -82 41 -110 22 -21 28 -22 56 -11 37 14 48 5 48
-39 0 -32 32 -74 71 -94 23 -12 29 -22 29 -46 0 -23 10 -40 37 -65 20 -19 40
-34 43 -34 4 0 16 11 28 25 12 14 26 25 32 25 11 0 25 -29 35 -73 7 -36 60
-69 98 -61 26 5 27 4 27 -35 0 -36 4 -42 42 -66 l43 -25 31 36 c31 36 32 36
43 16 6 -11 11 -28 11 -36 0 -18 60 -66 84 -66 9 0 27 7 40 15 23 15 23 15 22
-22 -1 -34 3 -40 34 -55 71 -33 78 -33 97 6 21 45 40 46 58 2 11 -26 24 -37
59 -49 43 -15 45 -15 67 9 30 32 37 30 45 -12 7 -37 18 -45 82 -59 31 -6 34
-5 49 34 9 23 20 41 24 41 4 0 17 -13 29 -30 19 -27 27 -30 74 -30 48 0 53 2
62 28 l10 27 24 -37 c29 -44 47 -52 100 -43 39 7 40 8 40 46 0 47 21 52 57 13
19 -21 29 -24 56 -19 61 12 67 16 67 41 0 32 29 44 46 18 37 -56 36 -55 84
-40 43 12 46 16 55 60 l10 48 27 -21 c31 -25 44 -26 92 -6 30 13 36 20 36 45
0 37 16 38 52 3 l28 -27 51 24 51 24 -5 44 c-4 37 -2 42 12 36 39 -16 62 -15
97 6 31 20 35 27 30 51 -8 43 16 56 53 28 l29 -22 47 23 c46 22 47 23 43 66
-3 43 -2 44 26 44 20 0 41 11 62 31 28 27 31 35 24 60 -11 37 0 43 50 28 39
-12 42 -11 75 21 35 34 47 81 25 95 -18 11 -10 22 20 28 37 8 61 44 68 103 l5
46 34 -7 c29 -5 38 -2 64 26 39 41 46 74 23 100 -17 19 -17 20 5 36 29 19 51
71 51 117 0 31 3 34 35 40 55 11 90 95 56 137 -19 23 -19 24 1 63 15 29 19 53
16 91 -4 51 -4 52 26 61 56 16 76 138 25 151 -14 4 -18 11 -14 22 4 9 9 52 12
96 4 56 11 87 24 104 13 15 19 40 19 71 0 49 -10 65 -45 71 -16 4 -19 11 -17
49 2 25 -1 65 -7 90 -8 35 -7 55 4 85 7 22 12 50 9 63 -14 75 -12 72 -54 72
-37 0 -40 2 -35 23 8 29 -12 117 -31 138 -11 13 -12 22 -4 44 12 32 5 78 -18
113 -13 20 -21 22 -52 17 l-37 -6 -11 57 c-17 83 -16 89 26 144 36 47 72 65
72 36 0 -8 16 -28 35 -45 27 -24 45 -31 76 -31 43 0 52 7 133 105 39 47 77 69
188 109 63 23 98 65 98 119 0 32 -6 46 -25 62 -15 12 -28 34 -31 56 -5 30 -1
41 24 71 33 37 97 76 108 66 11 -12 -26 -207 -61 -323 -19 -60 -54 -166 -79
-234 -25 -69 -46 -126 -46 -128 0 -3 9 -3 21 -1 15 2 28 22 50 78 42 107 94
271 120 375 22 92 39 128 39 85 0 -38 20 -301 26 -338 3 -18 11 -32 19 -32 11
0 15 19 17 83 l3 82 13 -75 c7 -41 18 -90 24 -109 l11 -35 18 23 c27 33 24 89
-10 266 -16 83 -34 185 -38 228 l-9 77 35 0 c24 0 64 18 135 60 61 35 173 87
281 128 427 165 752 319 865 409 204 162 336 398 356 635 8 87 -5 169 -46 302
-16 52 -34 123 -40 158 -7 34 -23 97 -36 139 -23 72 -23 79 -8 114 14 34 14
45 -6 145 -11 60 -33 139 -49 177 -16 37 -36 103 -46 146 -16 73 -16 80 0 97
9 10 19 37 22 59 3 23 9 41 13 41 4 0 23 -15 43 -32 31 -28 38 -42 45 -88 8
-62 28 -75 64 -43 30 27 45 62 53 123 4 34 18 72 36 99 60 92 65 170 28 441
-35 252 -31 710 5 710 33 0 767 -453 958 -591 4 -3 4 -19 -1 -35 -8 -27 -5
-33 25 -53 35 -24 55 -25 153 -5 l34 7 -6 -49 c-3 -27 -13 -78 -22 -114 -24
-96 -36 -506 -18 -626 35 -246 137 -526 266 -734 96 -153 260 -337 345 -386
19 -10 42 -36 53 -56 21 -42 38 -53 92 -63 29 -6 44 -17 63 -45 25 -38 60 -60
93 -60 10 0 35 -20 55 -44 28 -34 48 -48 89 -60 28 -9 71 -29 94 -45 42 -28
123 -48 143 -36 6 4 23 -5 37 -19 14 -14 53 -35 87 -45 34 -11 81 -29 106 -40
25 -11 66 -21 91 -21 25 0 60 -7 77 -15 22 -11 78 -17 209 -21 284 -10 409 -5
468 17 27 11 75 22 105 26 35 4 67 15 87 30 27 21 39 24 72 18 49 -8 165 34
356 128 165 82 237 132 409 282 267 234 455 566 542 960 23 105 26 142 26 290
-1 198 -13 313 -46 445 -67 269 -170 482 -345 720 -117 158 -390 404 -499 451
-24 11 -62 34 -84 53 -21 19 -56 37 -76 41 -20 3 -53 19 -72 34 -46 37 -74 51
-100 51 -11 0 -43 15 -71 34 -30 21 -68 38 -97 42 -26 4 -72 15 -102 26 -40
14 -69 17 -106 12 -44 -5 -55 -2 -89 20 -27 18 -51 26 -82 26 -25 0 -70 7
-101 16 -46 14 -67 15 -117 6 -33 -6 -79 -9 -102 -5 -28 4 -56 0 -83 -11 -37
-15 -43 -15 -72 0 -19 10 -43 14 -62 10 -17 -3 -75 -12 -128 -20 -205 -30
-538 -151 -648 -235 -19 -14 -58 -39 -86 -56 -29 -16 -99 -65 -154 -108 l-102
-79 -52 22 c-69 30 -259 134 -441 243 -133 79 -547 351 -600 393 -19 15 -17
19 87 118 120 115 267 228 390 299 l82 47 137 0 c99 0 148 4 180 16 139 50
301 72 669 93 131 8 179 15 235 34 93 32 166 70 210 108 29 26 35 38 33 63 -4
40 -43 66 -150 100 -469 148 -987 156 -1394 21 -133 -44 -402 -169 -506 -235
-115 -73 -259 -181 -333 -250 -99 -92 -88 -92 -201 3 -211 176 -354 277 -665
469 -324 201 -457 277 -506 289 -26 7 -86 34 -133 60 -47 26 -124 60 -172 75
-49 16 -88 32 -88 37 0 4 11 23 25 41 33 43 32 56 -7 93 -18 17 -44 45 -57 63
-26 34 -26 34 -141 16 -30 -6 -41 -1 -78 32 l-44 39 30 84 c46 130 52 140 73
129 10 -6 21 -20 24 -32 19 -61 38 -88 61 -88 59 0 89 125 82 334 -3 98 -1
139 7 146 8 7 16 6 23 -2 27 -34 118 -230 142 -309 28 -90 57 -135 113 -176
26 -19 44 -23 110 -23 78 0 80 1 128 41 36 30 68 46 118 59 120 31 159 76 181
215 6 39 22 94 36 124 13 30 23 55 22 56 -2 1 -25 8 -53 14 -59 15 -111 45
-126 73 -9 17 -5 26 26 58 21 22 51 44 66 51 33 13 37 34 13 60 -15 17 -11 24
66 113 45 52 87 97 93 99 6 2 30 0 53 -3 27 -4 55 -2 75 7 17 7 39 13 48 13
23 0 111 -63 187 -134 l64 -59 112 6 c62 3 132 11 156 19 l44 13 -64 85 c-36
47 -133 198 -218 335 -199 325 -260 415 -304 449 -20 15 -46 46 -57 69 -46 89
-137 202 -181 224 -24 11 -76 47 -116 80 -90 74 -218 142 -342 182 -110 36
-113 36 -205 10z m-162 -2741 c37 -25 207 -188 207 -198 0 -4 -18 -13 -39 -20
-38 -12 -50 -11 -113 15 -16 6 -18 1 -18 -36 l-1 -44 -124 130 c-69 72 -125
133 -125 136 0 10 51 28 90 32 76 8 93 6 123 -15z m-563 -78 c33 -17 60 -34
60 -39 0 -5 -13 -20 -29 -33 -28 -24 -28 -25 -10 -49 25 -32 24 -56 -5 -132
-56 -149 -90 -190 -291 -349 -87 -69 -157 -143 -174 -186 -9 -22 -19 -31 -28
-28 -8 4 -26 6 -39 6 -57 0 -152 133 -169 236 l-6 41 58 31 c33 17 79 53 104
79 25 26 69 68 98 92 29 24 66 62 83 85 57 79 249 276 269 276 11 0 46 -14 79
-30z m424 -677 c38 -6 38 -6 32 -45 -4 -22 -2 -57 4 -79 9 -33 21 -47 72 -79
33 -22 69 -42 80 -45 32 -11 14 -30 -33 -35 -50 -7 -76 -19 -103 -49 -15 -17
-17 -25 -7 -52 6 -18 11 -44 11 -58 0 -26 -3 -27 -77 -38 -43 -6 -99 -20 -124
-31 l-45 -20 -21 22 c-12 13 -39 28 -60 34 -21 6 -63 32 -92 57 -29 25 -62 50
-73 56 -20 11 -20 11 2 34 16 17 30 23 49 19 45 -9 59 12 70 110 14 118 27
131 171 182 72 25 87 27 144 17z m2591 -770 c83 -54 215 -134 295 -179 238
-135 274 -162 240 -184 -47 -30 -163 12 -342 123 -239 148 -678 440 -678 450
0 6 14 26 31 43 l32 33 136 -95 c75 -51 204 -138 286 -191z m-610 -99 c269
-150 699 -426 796 -511 98 -86 112 -94 147 -82 43 15 92 -13 92 -53 0 -26 -3
-28 -40 -28 -22 0 -54 9 -72 20 -18 11 -48 20 -66 20 -18 0 -52 10 -75 21
-104 53 -919 581 -926 600 -5 15 9 79 17 79 4 0 61 -30 127 -66z m2675 -316
c1 -13 7 -129 14 -258 14 -248 14 -250 -31 -250 -12 0 -33 -4 -48 -10 -20 -8
-27 -7 -32 6 -14 38 -119 509 -114 512 14 5 128 20 169 21 37 1 42 -2 42 -21z
m256 9 c5 -4 -15 -450 -21 -482 -4 -18 -13 -20 -98 -21 l-94 -2 -6 122 c-4 66
-10 184 -13 260 l-7 139 117 -6 c65 -3 120 -7 122 -10z m-427 -277 c53 -230
58 -256 43 -267 -9 -7 -18 -13 -21 -13 -3 0 -64 113 -134 250 -108 211 -126
251 -112 256 45 18 151 41 157 35 4 -3 34 -121 67 -261z m551 254 c47 -9 89
-21 94 -25 9 -8 -90 -466 -105 -482 -4 -5 -33 -3 -64 4 l-57 13 6 90 c3 50 8
159 12 241 6 156 8 175 21 175 4 0 46 -7 93 -16z m-680 -285 c66 -131 120
-242 120 -247 0 -4 -24 -20 -53 -34 l-53 -26 -172 227 c-95 125 -172 231 -172
234 0 15 188 98 203 90 4 -3 62 -112 127 -244z m886 224 l72 -28 -115 -227
c-104 -208 -116 -227 -134 -218 -10 6 -19 14 -19 19 0 9 97 435 106 464 7 22
4 22 90 -10z m185 -85 c56 -33 85 -56 80 -62 -4 -6 -70 -94 -146 -196 -76
-102 -142 -189 -146 -195 -6 -5 -30 1 -65 18 l-55 27 117 230 c65 127 120 230
123 230 3 0 44 -23 92 -52z m-1237 -233 l166 -220 -28 -22 c-60 -50 -68 -48
-199 35 -99 64 -137 96 -226 192 -59 63 -107 117 -107 120 1 7 102 79 158 112
37 21 50 25 59 15 6 -7 86 -111 177 -232z m1450 95 c42 -33 76 -64 76 -69 0
-5 -77 -92 -172 -194 l-172 -185 -26 17 c-14 9 -48 35 -75 58 -45 38 -47 43
-34 61 8 12 77 104 153 206 118 156 142 183 157 175 10 -5 52 -36 93 -69z
m-1686 -191 c8 -21 -117 60 -161 104 -48 47 -49 49 -31 68 17 19 19 17 103
-72 47 -51 87 -96 89 -100z m1861 32 l71 -79 -222 -166 c-193 -144 -224 -165
-233 -150 -5 9 -20 32 -33 51 l-22 34 52 59 c117 130 303 328 309 329 4 1 39
-34 78 -78z m135 -163 l47 -72 -23 -12 c-13 -6 -132 -58 -266 -114 -200 -85
-245 -101 -253 -89 -5 8 -9 16 -8 19 0 6 441 338 449 339 3 1 27 -31 54 -71z
m86 -140 c16 -29 30 -61 30 -71 0 -11 9 -32 21 -48 15 -22 17 -30 7 -34 -26
-9 -581 -135 -584 -133 -1 2 -11 27 -22 56 -16 42 -18 54 -7 58 7 3 127 54
267 114 139 60 254 109 255 110 2 0 16 -24 33 -52z m-5104 -114 c19 -46 18
-54 -11 -54 -23 0 -25 3 -25 51 0 57 13 58 36 3z m5210 -129 c12 -39 25 -91
29 -117 l7 -47 -33 -5 c-38 -7 -597 -76 -611 -76 -5 0 -6 5 -3 10 5 8 -5 104
-18 162 -2 11 551 147 588 144 15 -1 24 -17 41 -71z m-5405 -41 c-15 -79 -13
-181 4 -229 21 -57 19 -64 -17 -80 -40 -16 -48 -12 -48 24 0 44 -55 144 -99
179 -26 21 -40 41 -43 62 l-5 32 42 -6 c36 -6 44 -3 65 20 23 25 100 67 108
59 2 -1 -1 -29 -7 -61z m227 17 c20 -5 25 -14 28 -53 3 -44 1 -48 -30 -66 -18
-11 -45 -28 -61 -38 l-28 -18 7 69 c12 121 16 126 84 106z m2438 -111 c24 -17
44 -32 44 -34 0 -1 -17 0 -37 3 -52 8 -78 25 -70 45 8 21 11 21 63 -14z m66
-55 c15 -2 94 -48 175 -102 l148 -97 -90 -7 c-49 -3 -147 -9 -217 -13 l-126
-7 -11 53 c-6 29 -12 79 -13 111 -3 80 3 82 134 62z m2722 -11 c3 -9 6 -61 6
-115 l0 -100 -67 5 c-38 4 -162 11 -278 16 -115 6 -244 13 -287 16 l-76 6 15
46 c9 26 20 51 24 56 8 9 550 82 625 85 21 1 34 -5 38 -15z m-5072 -203 c4
-23 10 -52 13 -62 6 -19 2 -20 -87 -17 l-93 3 1 37 c1 21 7 45 14 53 16 20 66
34 110 32 33 -2 35 -4 42 -46z m4851 -13 l227 -12 0 -40 c0 -35 -23 -142 -32
-151 -3 -3 -120 32 -600 179 -49 15 -88 32 -88 38 0 12 19 11 493 -14z m-2111
-19 c27 -18 46 -35 41 -39 -4 -5 -119 -42 -255 -83 l-248 -75 -9 37 c-5 20
-13 66 -16 102 l-7 66 198 10 c110 5 210 10 223 11 13 1 46 -12 73 -29z m1717
-25 c206 -62 576 -176 579 -179 3 -3 -40 -155 -56 -196 l-11 -27 -323 165
c-178 90 -327 168 -331 173 -11 9 29 90 44 90 6 0 50 -12 98 -26z m-1578 -64
c32 -23 59 -44 59 -48 0 -4 -126 -71 -279 -150 l-278 -142 -33 67 c-44 94 -63
143 -57 149 5 5 503 161 520 163 4 1 35 -17 68 -39z m2073 -363 c-2 -20 -117
-197 -128 -197 -5 0 -152 93 -327 206 l-319 206 55 61 c30 33 55 65 55 70 0 5
150 -68 333 -161 217 -111 332 -175 331 -185z m-1896 245 c39 -24 72 -48 72
-52 0 -10 -591 -393 -597 -387 -16 16 -141 202 -138 205 16 16 572 289 580
285 5 -3 43 -26 83 -51z m1433 -249 c175 -115 319 -212 319 -217 0 -15 -144
-157 -156 -154 -22 5 -566 520 -557 528 21 18 66 50 70 50 3 0 148 -93 324
-207z m-4447 181 c19 -50 -4 -74 -133 -136 -80 -39 -85 -40 -97 -23 -20 26
-19 27 31 54 25 13 76 46 113 72 37 27 70 48 73 49 4 0 10 -7 13 -16z m3164
-32 l44 -15 -34 -32 c-135 -131 -499 -465 -505 -465 -5 0 -44 35 -87 79 l-78
78 294 191 c179 117 299 188 308 185 8 -3 35 -13 58 -21z m-120 -314 c-104
-161 -196 -299 -203 -306 -10 -11 -25 -4 -84 39 l-72 52 38 38 c83 83 498 468
505 469 4 0 -79 -132 -184 -292z m1183 -32 l208 -320 -30 -18 c-16 -10 -61
-34 -99 -53 -63 -32 -70 -33 -79 -17 -18 34 -291 683 -291 692 0 13 51 40 69
37 8 -1 108 -146 222 -321z m94 67 c151 -141 275 -259 275 -262 -1 -10 -129
-106 -142 -106 -7 0 -90 119 -185 265 -207 316 -234 360 -228 360 3 0 129
-116 280 -257z m-1075 207 c0 -28 27 -36 50 -15 11 10 23 15 26 12 7 -7 -264
-655 -277 -663 -14 -8 -191 86 -187 100 5 21 372 585 381 586 4 0 7 -9 7 -20z
m-3204 -45 l18 -55 -35 -36 c-44 -46 -85 -71 -130 -79 -33 -6 -37 -4 -47 22
-5 15 -17 44 -26 64 l-15 36 100 51 c55 29 104 52 109 52 5 0 17 -25 26 -55z
m4020 -290 c79 -187 146 -347 149 -356 4 -13 -14 -23 -87 -46 -51 -17 -105
-33 -119 -37 l-26 -6 -113 370 c-62 204 -111 372 -109 375 7 6 143 44 152 42
5 -2 73 -155 153 -342z m-698 258 l3 -51 56 34 c53 32 83 42 83 28 0 -10 -202
-668 -209 -680 -4 -8 -39 -1 -111 23 -58 18 -108 37 -113 42 -11 11 264 662
278 658 5 -2 11 -26 13 -54z m403 -65 c192 -617 196 -633 177 -640 -10 -4 -61
-11 -112 -14 l-93 -7 -6 59 c-13 113 -77 639 -81 666 -5 23 -1 27 22 31 63 9
60 13 93 -95z m-151 72 c0 -24 -79 -677 -85 -707 -3 -12 -11 -21 -18 -19 -6 3
-54 10 -104 17 -52 6 -93 17 -93 23 0 6 48 167 107 358 l107 348 43 0 c36 0
43 -3 43 -20z m65 -375 c19 -165 37 -313 40 -329 l5 -28 -88 7 c-48 4 -88 8
-89 9 -2 1 13 128 32 282 19 153 37 311 41 349 11 98 17 69 59 -290z m-4615
71 c0 -24 16 -36 51 -36 10 0 19 -4 19 -8 0 -15 -45 -50 -69 -54 -20 -2 -27 5
-47 50 l-23 53 22 9 c36 14 47 11 47 -14z m130 -21 c0 -29 -28 -45 -41 -24 -6
10 -2 19 14 31 28 22 27 23 27 -7z m-1470 -1318 c0 -24 -63 -110 -133 -181
l-68 -69 -24 36 c-14 20 -25 42 -25 50 0 14 178 157 210 170 26 10 40 7 40 -6z
m-287 -275 l20 -33 -29 -31 c-16 -16 -41 -36 -55 -43 -25 -14 -26 -13 -37 28
-5 23 -13 51 -17 63 -5 17 0 23 32 37 51 21 64 18 86 -21z m897 -93 c0 -56
-123 -209 -148 -184 -12 12 118 215 138 215 6 0 10 -14 10 -31z m-1996 -426
c-7 -149 -5 -144 -75 -183 -14 -8 -51 -30 -80 -47 -30 -18 -57 -33 -60 -33 -5
0 -18 202 -24 365 0 10 133 31 208 34 l39 1 -8 -137z m205 120 c21 -5 23 -9
17 -47 -4 -27 -16 -49 -34 -64 -15 -13 -41 -37 -59 -53 -17 -16 -46 -32 -63
-36 -19 -3 -35 -14 -40 -27 -11 -26 -13 128 -3 199 l6 47 76 -7 c42 -3 87 -9
100 -12z m1433 -22 c9 -8 -49 -96 -81 -125 -21 -19 -21 -19 -36 17 -20 49 -20
51 16 92 28 31 36 35 63 29 17 -3 34 -9 38 -13z m-1888 -143 c4 -84 9 -169 12
-190 5 -35 3 -38 -50 -77 -30 -23 -59 -41 -63 -41 -5 0 -28 87 -52 193 -24
105 -46 197 -48 203 -4 10 111 49 188 63 4 0 10 -68 13 -151z m544 143 c10 -6
6 -15 -19 -34 -19 -14 -35 -24 -37 -22 -2 2 -1 17 3 34 7 31 26 39 53 22z
m208 -65 c65 -35 67 -39 54 -100 -17 -82 -145 -247 -222 -287 l-37 -19 -11 39
c-5 21 -17 44 -25 51 -13 11 -4 35 72 180 84 164 87 167 113 160 14 -4 39 -15
56 -24z m-189 -138 c-70 -134 -89 -163 -111 -169 -14 -4 -26 -6 -26 -4 0 11
85 196 108 235 30 52 77 100 99 100 10 0 -11 -50 -70 -162z m-733 -55 c39
-172 45 -209 34 -220 -12 -11 -30 18 -112 178 -54 104 -96 192 -94 194 5 6
112 55 119 55 3 0 27 -93 53 -207z m-91 -52 l97 -188 -44 -37 c-24 -20 -47
-36 -50 -36 -13 0 -269 352 -260 358 49 36 139 92 148 92 6 0 55 -85 109 -189z
m751 117 c-8 -26 -77 -161 -71 -138 3 8 10 42 17 75 15 66 25 85 47 85 10 0
12 -6 7 -22z m-59 -10 c-2 -7 -13 -58 -25 -113 -24 -107 -36 -128 -81 -144
-25 -9 -31 -7 -49 16 -47 60 -18 132 81 201 41 29 75 52 76 52 1 0 1 -6 -2
-12z m-836 -207 l132 -175 -49 -50 c-27 -28 -56 -61 -64 -74 -16 -23 -17 -22
-173 145 l-157 168 87 83 c47 46 88 82 90 81 1 -2 62 -82 134 -178z m-184
-148 c71 -76 139 -150 152 -164 l23 -26 -26 -46 c-14 -26 -28 -47 -30 -47 -12
0 -364 272 -364 281 0 12 101 139 110 139 4 0 65 -62 135 -137z m1914 1 c6
-15 10 -27 9 -28 -2 -1 -16 -10 -31 -20 -16 -9 -40 -16 -55 -14 l-27 3 39 43
c21 23 42 42 46 42 4 0 12 -12 19 -26z m-1974 -173 c98 -74 175 -136 169 -138
-13 -4 -427 172 -431 184 -6 17 57 104 70 97 6 -4 93 -69 192 -143z m2025 65
c0 -26 -9 -42 -37 -70 -21 -20 -40 -36 -44 -36 -7 0 -43 90 -38 94 8 6 105 45
112 46 4 0 7 -15 7 -34z m-100 14 c-20 -13 -33 -13 -25 0 3 6 14 10 23 10 15
0 15 -2 2 -10z m-1960 -155 c102 -43 188 -81 192 -84 7 -6 -12 -84 -23 -96
-10 -9 -471 98 -476 111 -2 6 10 48 27 93 l31 81 32 -14 c18 -7 115 -48 217
-91z m1760 -13 c0 -49 -4 -63 -28 -92 l-29 -34 -49 14 c-27 7 -51 15 -53 17
-6 5 141 153 151 153 5 0 8 -26 8 -58z m364 42 c16 -41 7 -63 -31 -73 -74 -21
-80 -10 -32 50 33 41 53 49 63 23z m34 -121 c15 -48 38 -201 31 -208 -7 -6
-249 -38 -254 -33 -2 2 24 41 57 87 52 71 59 86 50 104 -28 57 -26 65 20 75
77 17 84 16 96 -25z m-2233 -57 c130 -30 238 -56 239 -58 1 -1 0 -43 -3 -93
-5 -82 -8 -90 -26 -89 -41 4 -480 56 -492 59 -8 3 -4 36 13 117 13 62 24 114
24 116 0 4 5 3 245 -52z m2275 -287 l0 -112 -172 7 c-95 4 -192 9 -215 13
l-43 5 23 18 c12 10 44 48 72 84 27 36 56 66 65 67 8 0 56 7 105 14 50 7 107
13 128 14 l37 1 0 -111z m-2275 55 c121 -15 223 -29 226 -33 4 -3 10 -26 13
-51 l7 -46 -233 -12 c-128 -7 -250 -12 -270 -12 l-38 0 0 96 0 96 38 -6 c20
-3 136 -18 257 -32z m233 -149 c-8 -8 -499 -157 -503 -153 -2 2 -7 31 -11 66
l-7 62 34 1 c32 1 448 25 478 28 8 0 12 -1 9 -4z m35 -62 c9 -26 15 -48 14
-49 -87 -50 -482 -243 -488 -237 -13 13 -61 165 -54 172 5 5 484 156 506 160
4 1 14 -20 22 -46z m1906 30 l93 -6 -6 -52 c-8 -67 -25 -115 -41 -115 -44 0
-213 69 -310 126 l-110 66 140 -6 c77 -4 182 -9 234 -13z m-1803 -260 c-1 0
-102 -67 -226 -147 l-225 -146 -17 22 c-39 52 -100 180 -91 189 6 6 115 63
243 128 l233 119 42 -82 c23 -44 41 -82 41 -83z m449 -3 c4 -6 -1 -33 -10 -61
l-17 -50 -41 24 c-23 14 -43 29 -45 35 -3 11 75 62 95 62 6 0 15 -5 18 -10z
m-377 -90 c-2 -3 -75 -72 -163 -155 -88 -82 -176 -164 -196 -182 l-36 -34 -57
72 c-31 39 -55 76 -53 82 2 6 102 75 223 154 l219 143 33 -37 c18 -20 31 -39
30 -43z m432 -11 c0 -27 -2 -29 -27 -23 -38 9 -38 9 -24 56 l13 43 19 -24 c10
-13 19 -36 19 -52z m864 31 c132 -38 368 -124 373 -136 3 -9 -71 -134 -103
-173 -3 -3 -56 30 -312 196 l-112 74 15 29 c19 37 40 38 139 10z m-1291 -58
c-10 -16 -76 -119 -148 -230 -71 -111 -135 -201 -140 -202 -6 0 -30 20 -54 44
l-43 44 78 74 c138 130 319 298 322 298 2 0 -4 -13 -15 -28z m73 -18 c19 -15
34 -31 34 -36 0 -16 -211 -508 -219 -508 -9 0 -111 68 -138 92 l-21 20 36 57
c117 184 262 401 267 401 4 0 22 -12 41 -26z m1268 -116 c234 -151 223 -129
121 -236 l-64 -67 -43 41 c-24 22 -108 101 -186 174 l-144 134 46 43 c24 24
50 43 56 43 6 0 102 -59 214 -132z m-1050 -20 c-2 -16 -153 -510 -158 -515 -9
-10 -229 85 -224 97 2 4 52 122 111 263 l109 255 81 -44 c45 -24 81 -49 81
-56z m787 -169 c80 -123 145 -226 143 -228 -7 -8 -176 -81 -188 -81 -11 0
-223 488 -215 493 24 15 96 45 104 43 5 -1 75 -103 156 -227z m116 55 c92 -87
174 -163 182 -170 12 -10 2 -20 -58 -59 -40 -26 -76 -43 -81 -39 -4 5 -64 96
-134 203 -114 177 -124 195 -108 207 9 7 20 14 24 14 4 0 83 -70 175 -156z
m-288 -132 c57 -134 101 -245 99 -247 -10 -9 -171 -54 -203 -57 l-38 -3 -77
250 -76 250 45 13 c25 7 66 21 91 31 25 10 48 16 51 12 3 -3 52 -115 108 -249z
m-510 227 c21 -8 23 -14 18 -47 -3 -20 -18 -140 -33 -267 -15 -126 -28 -232
-30 -233 -3 -4 -95 13 -156 29 -21 5 -38 15 -38 21 0 6 35 125 77 265 l77 254
31 -7 c16 -4 41 -11 54 -15z m90 -276 c17 -139 31 -259 31 -267 0 -13 -13 -16
-62 -16 -35 0 -68 4 -74 8 -8 5 -4 71 17 242 34 280 38 305 49 294 4 -5 22
-122 39 -261z m105 245 c9 -10 156 -511 152 -515 -9 -9 -206 -16 -206 -7 -1 5
-16 128 -34 273 l-32 263 59 -5 c32 -3 60 -7 61 -9z"/>
</g>
</svg>
