<svg width="1280" height="1206" xmlns="http://www.w3.org/2000/svg" preserveAspectRatio="xMidYMid meet">
 <metadata>Created by potrace 1.15, written by Peter Selinger 2001-2017</metadata>

 <g>
  <title>background</title>
  <rect fill="none" id="canvas_background" height="402" width="582" y="-1" x="-1"/>
 </g>
 <g>
  <title>Layer 1</title>
  <g id="svg_1" fill="#000000" transform="translate(0,1206) scale(0.10000000149011612,-0.10000000149011612) ">
   <path fill="#41e5ff" stroke="#fff" id="svg_2" d="m6335,12039c-38,-12 -108,-24 -155,-27c-95,-8 -164,-38 -232,-103c-32,-30 -38,-42 -38,-77c0,-37 -7,-48 -73,-119c-54,-58 -93,-114 -145,-209l-72,-130l0,-81c0,-94 -13,-117 -71,-127c-26,-5 -42,-1 -60,12c-13,10 -64,44 -114,75c-103,64 -160,119 -260,249c-38,50 -82,100 -96,111c-25,18 -28,18 -58,3c-17,-9 -31,-19 -31,-21c0,-3 20,-32 45,-66c25,-33 50,-80 56,-102c6,-23 19,-51 29,-62c36,-41 40,-60 24,-114c-17,-59 -23,-63 -159,-121c-123,-53 -165,-82 -165,-116c0,-16 -6,-24 -18,-24c-18,0 -121,-68 -165,-108c-96,-88 -140,-138 -167,-192c-17,-34 -44,-80 -61,-102c-31,-44 -38,-68 -14,-48c12,10 15,10 15,-3c0,-9 -24,-34 -53,-55c-28,-21 -59,-47 -67,-56c-8,-10 -39,-34 -70,-53c-151,-96 -289,-284 -349,-477c-28,-92 -26,-129 12,-206c32,-65 39,-72 91,-90c40,-14 22,-30 -44,-41c-107,-17 -154,-70 -196,-219c-47,-169 -137,-331 -284,-510c-21,-25 -43,-63 -50,-85c-7,-22 -34,-62 -60,-90c-43,-45 -48,-56 -53,-107c-3,-35 -15,-74 -31,-100c-54,-93 -44,-180 44,-400c81,-201 120,-274 185,-346c82,-90 227,-159 474,-226c178,-48 443,-139 565,-192c97,-42 207,-77 468,-145c71,-19 128,-37 128,-40c0,-15 -255,-251 -342,-317c-428,-321 -904,-566 -1978,-1019c-616,-259 -749,-327 -779,-401c-10,-23 -46,-44 -234,-132c-427,-199 -922,-451 -1197,-608c-172,-98 -493,-301 -512,-324c-10,-11 -18,-34 -18,-50l0,-31l63,5c82,7 182,43 482,175c449,198 692,277 1020,332c66,11 148,22 181,26c76,8 78,4 68,-116c-6,-85 -6,-88 36,-195c24,-60 52,-119 64,-131c18,-19 44,-25 206,-43c233,-27 306,-42 444,-91c77,-28 152,-46 246,-60c74,-11 142,-21 150,-24c30,-9 248,-45 363,-60c328,-42 449,-11 814,211c96,59 178,103 182,98c14,-16 107,-263 155,-414c26,-80 53,-165 61,-189l14,-43l-56,-59c-89,-93 -143,-119 -143,-69c0,28 -73,64 -100,50c-17,-9 -22,-6 -37,27c-14,30 -28,41 -61,53l-44,15l-29,-35c-28,-33 -31,-34 -42,-16c-34,53 -53,68 -89,69c-22,1 -45,-6 -56,-16c-26,-23 -29,-22 -36,18c-8,39 -22,50 -83,60c-40,6 -41,5 -48,-24c-3,-16 -13,-35 -21,-42c-12,-10 -20,-7 -42,18c-18,21 -40,33 -65,36c-32,5 -40,2 -53,-19c-22,-32 -40,-30 -53,6c-10,29 -12,30 -70,30l-61,0l0,-40c0,-46 -13,-51 -53,-19c-20,15 -38,19 -74,17c-44,-3 -48,-5 -57,-35c-11,-41 -32,-42 -54,-3c-19,34 -51,39 -107,16c-31,-13 -34,-17 -28,-49c7,-44 -7,-52 -42,-25c-26,20 -29,20 -68,6c-35,-12 -43,-21 -50,-51l-9,-37l-32,25c-39,29 -53,31 -101,8c-32,-15 -35,-20 -35,-60c0,-45 -7,-50 -41,-33c-15,9 -28,6 -58,-11c-32,-18 -40,-29 -45,-60c-3,-22 -9,-39 -12,-39c-4,0 -22,9 -40,21c-30,18 -36,19 -61,6c-59,-31 -70,-56 -48,-109c6,-15 2,-18 -25,-18c-18,0 -48,-9 -66,-21c-29,-17 -34,-26 -34,-58l0,-38l-49,5c-44,4 -53,1 -77,-23c-24,-24 -26,-32 -21,-76c5,-38 3,-49 -8,-49c-7,0 -27,-12 -44,-26c-23,-19 -31,-34 -31,-57c0,-18 -3,-42 -6,-55c-6,-22 -7,-22 -25,-6c-17,15 -22,16 -44,4c-47,-25 -83,-108 -55,-125c16,-10 12,-19 -20,-60c-21,-26 -30,-49 -30,-74c0,-45 -8,-58 -43,-66c-52,-13 -84,-106 -49,-139c19,-16 18,-18 -4,-63c-15,-29 -24,-64 -24,-94c0,-37 -4,-48 -19,-52c-26,-6 -49,-44 -57,-94c-6,-39 -4,-43 21,-55c24,-11 26,-15 19,-47c-4,-20 -8,-61 -9,-91c0,-38 -7,-66 -23,-90c-22,-35 -27,-75 -16,-118c5,-17 14,-22 38,-22l31,0l-1,-100c-1,-55 -7,-120 -14,-144c-10,-35 -9,-49 3,-79c13,-31 20,-36 53,-39l38,-3l-3,-52c-1,-30 3,-63 12,-80c8,-15 17,-59 20,-96c6,-83 33,-122 74,-106c39,15 43,11 43,-33c0,-48 21,-95 51,-116c13,-9 18,-20 14,-33c-9,-28 11,-82 41,-110c22,-21 28,-22 56,-11c37,14 48,5 48,-39c0,-32 32,-74 71,-94c23,-12 29,-22 29,-46c0,-23 10,-40 37,-65c20,-19 40,-34 43,-34c4,0 16,11 28,25c12,14 26,25 32,25c11,0 25,-29 35,-73c7,-36 60,-69 98,-61c26,5 27,4 27,-35c0,-36 4,-42 42,-66l43,-25l31,36c31,36 32,36 43,16c6,-11 11,-28 11,-36c0,-18 60,-66 84,-66c9,0 27,7 40,15c23,15 23,15 22,-22c-1,-34 3,-40 34,-55c71,-33 78,-33 97,6c21,45 40,46 58,2c11,-26 24,-37 59,-49c43,-15 45,-15 67,9c30,32 37,30 45,-12c7,-37 18,-45 82,-59c31,-6 34,-5 49,34c9,23 20,41 24,41c4,0 17,-13 29,-30c19,-27 27,-30 74,-30c48,0 53,2 62,28l10,27l24,-37c29,-44 47,-52 100,-43c39,7 40,8 40,46c0,47 21,52 57,13c19,-21 29,-24 56,-19c61,12 67,16 67,41c0,32 29,44 46,18c37,-56 36,-55 84,-40c43,12 46,16 55,60l10,48l27,-21c31,-25 44,-26 92,-6c30,13 36,20 36,45c0,37 16,38 52,3l28,-27l51,24l51,24l-5,44c-4,37 -2,42 12,36c39,-16 62,-15 97,6c31,20 35,27 30,51c-8,43 16,56 53,28l29,-22l47,23c46,22 47,23 43,66c-3,43 -2,44 26,44c20,0 41,11 62,31c28,27 31,35 24,60c-11,37 0,43 50,28c39,-12 42,-11 75,21c35,34 47,81 25,95c-18,11 -10,22 20,28c37,8 61,44 68,103l5,46l34,-7c29,-5 38,-2 64,26c39,41 46,74 23,100c-17,19 -17,20 5,36c29,19 51,71 51,117c0,31 3,34 35,40c55,11 90,95 56,137c-19,23 -19,24 1,63c15,29 19,53 16,91c-4,51 -4,52 26,61c56,16 76,138 25,151c-14,4 -18,11 -14,22c4,9 9,52 12,96c4,56 11,87 24,104c13,15 19,40 19,71c0,49 -10,65 -45,71c-16,4 -19,11 -17,49c2,25 -1,65 -7,90c-8,35 -7,55 4,85c7,22 12,50 9,63c-14,75 -12,72 -54,72c-37,0 -40,2 -35,23c8,29 -12,117 -31,138c-11,13 -12,22 -4,44c12,32 5,78 -18,113c-13,20 -21,22 -52,17l-37,-6l-11,57c-17,83 -16,89 26,144c36,47 72,65 72,36c0,-8 16,-28 35,-45c27,-24 45,-31 76,-31c43,0 52,7 133,105c39,47 77,69 188,109c63,23 98,65 98,119c0,32 -6,46 -25,62c-15,12 -28,34 -31,56c-5,30 -1,41 24,71c33,37 97,76 108,66c11,-12 -26,-207 -61,-323c-19,-60 -54,-166 -79,-234c-25,-69 -46,-126 -46,-128c0,-3 9,-3 21,-1c15,2 28,22 50,78c42,107 94,271 120,375c22,92 39,128 39,85c0,-38 20,-301 26,-338c3,-18 11,-32 19,-32c11,0 15,19 17,83l3,82l13,-75c7,-41 18,-90 24,-109l11,-35l18,23c27,33 24,89 -10,266c-16,83 -34,185 -38,228l-9,77l35,0c24,0 64,18 135,60c61,35 173,87 281,128c427,165 752,319 865,409c204,162 336,398 356,635c8,87 -5,169 -46,302c-16,52 -34,123 -40,158c-7,34 -23,97 -36,139c-23,72 -23,79 -8,114c14,34 14,45 -6,145c-11,60 -33,139 -49,177c-16,37 -36,103 -46,146c-16,73 -16,80 0,97c9,10 19,37 22,59c3,23 9,41 13,41c4,0 23,-15 43,-32c31,-28 38,-42 45,-88c8,-62 28,-75 64,-43c30,27 45,62 53,123c4,34 18,72 36,99c60,92 65,170 28,441c-35,252 -31,710 5,710c33,0 767,-453 958,-591c4,-3 4,-19 -1,-35c-8,-27 -5,-33 25,-53c35,-24 55,-25 153,-5l34,7l-6,-49c-3,-27 -13,-78 -22,-114c-24,-96 -36,-506 -18,-626c35,-246 137,-526 266,-734c96,-153 260,-337 345,-386c19,-10 42,-36 53,-56c21,-42 38,-53 92,-63c29,-6 44,-17 63,-45c25,-38 60,-60 93,-60c10,0 35,-20 55,-44c28,-34 48,-48 89,-60c28,-9 71,-29 94,-45c42,-28 123,-48 143,-36c6,4 23,-5 37,-19c14,-14 53,-35 87,-45c34,-11 81,-29 106,-40c25,-11 66,-21 91,-21c25,0 60,-7 77,-15c22,-11 78,-17 209,-21c284,-10 409,-5 468,17c27,11 75,22 105,26c35,4 67,15 87,30c27,21 39,24 72,18c49,-8 165,34 356,128c165,82 237,132 409,282c267,234 455,566 542,960c23,105 26,142 26,290c-1,198 -13,313 -46,445c-67,269 -170,482 -345,720c-117,158 -390,404 -499,451c-24,11 -62,34 -84,53c-21,19 -56,37 -76,41c-20,3 -53,19 -72,34c-46,37 -74,51 -100,51c-11,0 -43,15 -71,34c-30,21 -68,38 -97,42c-26,4 -72,15 -102,26c-40,14 -69,17 -106,12c-44,-5 -55,-2 -89,20c-27,18 -51,26 -82,26c-25,0 -70,7 -101,16c-46,14 -67,15 -117,6c-33,-6 -79,-9 -102,-5c-28,4 -56,0 -83,-11c-37,-15 -43,-15 -72,0c-19,10 -43,14 -62,10c-17,-3 -75,-12 -128,-20c-205,-30 -538,-151 -648,-235c-19,-14 -58,-39 -86,-56c-29,-16 -99,-65 -154,-108l-102,-79l-52,22c-69,30 -259,134 -441,243c-133,79 -547,351 -600,393c-19,15 -17,19 87,118c120,115 267,228 390,299l82,47l137,0c99,0 148,4 180,16c139,50 301,72 669,93c131,8 179,15 235,34c93,32 166,70 210,108c29,26 35,38 33,63c-4,40 -43,66 -150,100c-469,148 -987,156 -1394,21c-133,-44 -402,-169 -506,-235c-115,-73 -259,-181 -333,-250c-99,-92 -88,-92 -201,3c-211,176 -354,277 -665,469c-324,201 -457,277 -506,289c-26,7 -86,34 -133,60c-47,26 -124,60 -172,75c-49,16 -88,32 -88,37c0,4 11,23 25,41c33,43 32,56 -7,93c-18,17 -44,45 -57,63c-26,34 -26,34 -141,16c-30,-6 -41,-1 -78,32l-44,39l30,84c46,130 52,140 73,129c10,-6 21,-20 24,-32c19,-61 38,-88 61,-88c59,0 89,125 82,334c-3,98 -1,139 7,146c8,7 16,6 23,-2c27,-34 118,-230 142,-309c28,-90 57,-135 113,-176c26,-19 44,-23 110,-23c78,0 80,1 128,41c36,30 68,46 118,59c120,31 159,76 181,215c6,39 22,94 36,124c13,30 23,55 22,56c-2,1 -25,8 -53,14c-59,15 -111,45 -126,73c-9,17 -5,26 26,58c21,22 51,44 66,51c33,13 37,34 13,60c-15,17 -11,24 66,113c45,52 87,97 93,99c6,2 30,0 53,-3c27,-4 55,-2 75,7c17,7 39,13 48,13c23,0 111,-63 187,-134l64,-59l112,6c62,3 132,11 156,19l44,13l-64,85c-36,47 -133,198 -218,335c-199,325 -260,415 -304,449c-20,15 -46,46 -57,69c-46,89 -137,202 -181,224c-24,11 -76,47 -116,80c-90,74 -218,142 -342,182c-110,36 -113,36 -205,10zm-162,-2741c37,-25 207,-188 207,-198c0,-4 -18,-13 -39,-20c-38,-12 -50,-11 -113,15c-16,6 -18,1 -18,-36l-1,-44l-124,130c-69,72 -125,133 -125,136c0,10 51,28 90,32c76,8 93,6 123,-15zm-563,-78c33,-17 60,-34 60,-39c0,-5 -13,-20 -29,-33c-28,-24 -28,-25 -10,-49c25,-32 24,-56 -5,-132c-56,-149 -90,-190 -291,-349c-87,-69 -157,-143 -174,-186c-9,-22 -19,-31 -28,-28c-8,4 -26,6 -39,6c-57,0 -152,133 -169,236l-6,41l58,31c33,17 79,53 104,79c25,26 69,68 98,92c29,24 66,62 83,85c57,79 249,276 269,276c11,0 46,-14 79,-30zm424,-677c38,-6 38,-6 32,-45c-4,-22 -2,-57 4,-79c9,-33 21,-47 72,-79c33,-22 69,-42 80,-45c32,-11 14,-30 -33,-35c-50,-7 -76,-19 -103,-49c-15,-17 -17,-25 -7,-52c6,-18 11,-44 11,-58c0,-26 -3,-27 -77,-38c-43,-6 -99,-20 -124,-31l-45,-20l-21,22c-12,13 -39,28 -60,34c-21,6 -63,32 -92,57c-29,25 -62,50 -73,56c-20,11 -20,11 2,34c16,17 30,23 49,19c45,-9 59,12 70,110c14,118 27,131 171,182c72,25 87,27 144,17zm2591,-770c83,-54 215,-134 295,-179c238,-135 274,-162 240,-184c-47,-30 -163,12 -342,123c-239,148 -678,440 -678,450c0,6 14,26 31,43l32,33l136,-95c75,-51 204,-138 286,-191zm-610,-99c269,-150 699,-426 796,-511c98,-86 112,-94 147,-82c43,15 92,-13 92,-53c0,-26 -3,-28 -40,-28c-22,0 -54,9 -72,20c-18,11 -48,20 -66,20c-18,0 -52,10 -75,21c-104,53 -919,581 -926,600c-5,15 9,79 17,79c4,0 61,-30 127,-66zm2675,-316c1,-13 7,-129 14,-258c14,-248 14,-250 -31,-250c-12,0 -33,-4 -48,-10c-20,-8 -27,-7 -32,6c-14,38 -119,509 -114,512c14,5 128,20 169,21c37,1 42,-2 42,-21zm256,9c5,-4 -15,-450 -21,-482c-4,-18 -13,-20 -98,-21l-94,-2l-6,122c-4,66 -10,184 -13,260l-7,139l117,-6c65,-3 120,-7 122,-10zm-427,-277c53,-230 58,-256 43,-267c-9,-7 -18,-13 -21,-13c-3,0 -64,113 -134,250c-108,211 -126,251 -112,256c45,18 151,41 157,35c4,-3 34,-121 67,-261zm551,254c47,-9 89,-21 94,-25c9,-8 -90,-466 -105,-482c-4,-5 -33,-3 -64,4l-57,13l6,90c3,50 8,159 12,241c6,156 8,175 21,175c4,0 46,-7 93,-16zm-680,-285c66,-131 120,-242 120,-247c0,-4 -24,-20 -53,-34l-53,-26l-172,227c-95,125 -172,231 -172,234c0,15 188,98 203,90c4,-3 62,-112 127,-244zm886,224l72,-28l-115,-227c-104,-208 -116,-227 -134,-218c-10,6 -19,14 -19,19c0,9 97,435 106,464c7,22 4,22 90,-10zm185,-85c56,-33 85,-56 80,-62c-4,-6 -70,-94 -146,-196c-76,-102 -142,-189 -146,-195c-6,-5 -30,1 -65,18l-55,27l117,230c65,127 120,230 123,230c3,0 44,-23 92,-52zm-1237,-233l166,-220l-28,-22c-60,-50 -68,-48 -199,35c-99,64 -137,96 -226,192c-59,63 -107,117 -107,120c1,7 102,79 158,112c37,21 50,25 59,15c6,-7 86,-111 177,-232zm1450,95c42,-33 76,-64 76,-69c0,-5 -77,-92 -172,-194l-172,-185l-26,17c-14,9 -48,35 -75,58c-45,38 -47,43 -34,61c8,12 77,104 153,206c118,156 142,183 157,175c10,-5 52,-36 93,-69zm-1686,-191c8,-21 -117,60 -161,104c-48,47 -49,49 -31,68c17,19 19,17 103,-72c47,-51 87,-96 89,-100zm1861,32l71,-79l-222,-166c-193,-144 -224,-165 -233,-150c-5,9 -20,32 -33,51l-22,34l52,59c117,130 303,328 309,329c4,1 39,-34 78,-78zm135,-163l47,-72l-23,-12c-13,-6 -132,-58 -266,-114c-200,-85 -245,-101 -253,-89c-5,8 -9,16 -8,19c0,6 441,338 449,339c3,1 27,-31 54,-71zm86,-140c16,-29 30,-61 30,-71c0,-11 9,-32 21,-48c15,-22 17,-30 7,-34c-26,-9 -581,-135 -584,-133c-1,2 -11,27 -22,56c-16,42 -18,54 -7,58c7,3 127,54 267,114c139,60 254,109 255,110c2,0 16,-24 33,-52zm-5104,-114c19,-46 18,-54 -11,-54c-23,0 -25,3 -25,51c0,57 13,58 36,3zm5210,-129c12,-39 25,-91 29,-117l7,-47l-33,-5c-38,-7 -597,-76 -611,-76c-5,0 -6,5 -3,10c5,8 -5,104 -18,162c-2,11 551,147 588,144c15,-1 24,-17 41,-71zm-5405,-41c-15,-79 -13,-181 4,-229c21,-57 19,-64 -17,-80c-40,-16 -48,-12 -48,24c0,44 -55,144 -99,179c-26,21 -40,41 -43,62l-5,32l42,-6c36,-6 44,-3 65,20c23,25 100,67 108,59c2,-1 -1,-29 -7,-61zm227,17c20,-5 25,-14 28,-53c3,-44 1,-48 -30,-66c-18,-11 -45,-28 -61,-38l-28,-18l7,69c12,121 16,126 84,106zm2438,-111c24,-17 44,-32 44,-34c0,-1 -17,0 -37,3c-52,8 -78,25 -70,45c8,21 11,21 63,-14zm66,-55c15,-2 94,-48 175,-102l148,-97l-90,-7c-49,-3 -147,-9 -217,-13l-126,-7l-11,53c-6,29 -12,79 -13,111c-3,80 3,82 134,62zm2722,-11c3,-9 6,-61 6,-115l0,-100l-67,5c-38,4 -162,11 -278,16c-115,6 -244,13 -287,16l-76,6l15,46c9,26 20,51 24,56c8,9 550,82 625,85c21,1 34,-5 38,-15zm-5072,-203c4,-23 10,-52 13,-62c6,-19 2,-20 -87,-17l-93,3l1,37c1,21 7,45 14,53c16,20 66,34 110,32c33,-2 35,-4 42,-46zm4851,-13l227,-12l0,-40c0,-35 -23,-142 -32,-151c-3,-3 -120,32 -600,179c-49,15 -88,32 -88,38c0,12 19,11 493,-14zm-2111,-19c27,-18 46,-35 41,-39c-4,-5 -119,-42 -255,-83l-248,-75l-9,37c-5,20 -13,66 -16,102l-7,66l198,10c110,5 210,10 223,11c13,1 46,-12 73,-29zm1717,-25c206,-62 576,-176 579,-179c3,-3 -40,-155 -56,-196l-11,-27l-323,165c-178,90 -327,168 -331,173c-11,9 29,90 44,90c6,0 50,-12 98,-26zm-1578,-64c32,-23 59,-44 59,-48c0,-4 -126,-71 -279,-150l-278,-142l-33,67c-44,94 -63,143 -57,149c5,5 503,161 520,163c4,1 35,-17 68,-39zm2073,-363c-2,-20 -117,-197 -128,-197c-5,0 -152,93 -327,206l-319,206l55,61c30,33 55,65 55,70c0,5 150,-68 333,-161c217,-111 332,-175 331,-185zm-1896,245c39,-24 72,-48 72,-52c0,-10 -591,-393 -597,-387c-16,16 -141,202 -138,205c16,16 572,289 580,285c5,-3 43,-26 83,-51zm1433,-249c175,-115 319,-212 319,-217c0,-15 -144,-157 -156,-154c-22,5 -566,520 -557,528c21,18 66,50 70,50c3,0 148,-93 324,-207zm-4447,181c19,-50 -4,-74 -133,-136c-80,-39 -85,-40 -97,-23c-20,26 -19,27 31,54c25,13 76,46 113,72c37,27 70,48 73,49c4,0 10,-7 13,-16zm3164,-32l44,-15l-34,-32c-135,-131 -499,-465 -505,-465c-5,0 -44,35 -87,79l-78,78l294,191c179,117 299,188 308,185c8,-3 35,-13 58,-21zm-120,-314c-104,-161 -196,-299 -203,-306c-10,-11 -25,-4 -84,39l-72,52l38,38c83,83 498,468 505,469c4,0 -79,-132 -184,-292zm1183,-32l208,-320l-30,-18c-16,-10 -61,-34 -99,-53c-63,-32 -70,-33 -79,-17c-18,34 -291,683 -291,692c0,13 51,40 69,37c8,-1 108,-146 222,-321zm94,67c151,-141 275,-259 275,-262c-1,-10 -129,-106 -142,-106c-7,0 -90,119 -185,265c-207,316 -234,360 -228,360c3,0 129,-116 280,-257zm-1075,207c0,-28 27,-36 50,-15c11,10 23,15 26,12c7,-7 -264,-655 -277,-663c-14,-8 -191,86 -187,100c5,21 372,585 381,586c4,0 7,-9 7,-20zm-3204,-45l18,-55l-35,-36c-44,-46 -85,-71 -130,-79c-33,-6 -37,-4 -47,22c-5,15 -17,44 -26,64l-15,36l100,51c55,29 104,52 109,52c5,0 17,-25 26,-55zm4020,-290c79,-187 146,-347 149,-356c4,-13 -14,-23 -87,-46c-51,-17 -105,-33 -119,-37l-26,-6l-113,370c-62,204 -111,372 -109,375c7,6 143,44 152,42c5,-2 73,-155 153,-342zm-698,258l3,-51l56,34c53,32 83,42 83,28c0,-10 -202,-668 -209,-680c-4,-8 -39,-1 -111,23c-58,18 -108,37 -113,42c-11,11 264,662 278,658c5,-2 11,-26 13,-54zm403,-65c192,-617 196,-633 177,-640c-10,-4 -61,-11 -112,-14l-93,-7l-6,59c-13,113 -77,639 -81,666c-5,23 -1,27 22,31c63,9 60,13 93,-95zm-151,72c0,-24 -79,-677 -85,-707c-3,-12 -11,-21 -18,-19c-6,3 -54,10 -104,17c-52,6 -93,17 -93,23c0,6 48,167 107,358l107,348l43,0c36,0 43,-3 43,-20zm65,-375c19,-165 37,-313 40,-329l5,-28l-88,7c-48,4 -88,8 -89,9c-2,1 13,128 32,282c19,153 37,311 41,349c11,98 17,69 59,-290zm-4615,71c0,-24 16,-36 51,-36c10,0 19,-4 19,-8c0,-15 -45,-50 -69,-54c-20,-2 -27,5 -47,50l-23,53l22,9c36,14 47,11 47,-14zm130,-21c0,-29 -28,-45 -41,-24c-6,10 -2,19 14,31c28,22 27,23 27,-7zm-1470,-1318c0,-24 -63,-110 -133,-181l-68,-69l-24,36c-14,20 -25,42 -25,50c0,14 178,157 210,170c26,10 40,7 40,-6zm-287,-275l20,-33l-29,-31c-16,-16 -41,-36 -55,-43c-25,-14 -26,-13 -37,28c-5,23 -13,51 -17,63c-5,17 0,23 32,37c51,21 64,18 86,-21zm897,-93c0,-56 -123,-209 -148,-184c-12,12 118,215 138,215c6,0 10,-14 10,-31zm-1996,-426c-7,-149 -5,-144 -75,-183c-14,-8 -51,-30 -80,-47c-30,-18 -57,-33 -60,-33c-5,0 -18,202 -24,365c0,10 133,31 208,34l39,1l-8,-137zm205,120c21,-5 23,-9 17,-47c-4,-27 -16,-49 -34,-64c-15,-13 -41,-37 -59,-53c-17,-16 -46,-32 -63,-36c-19,-3 -35,-14 -40,-27c-11,-26 -13,128 -3,199l6,47l76,-7c42,-3 87,-9 100,-12zm1433,-22c9,-8 -49,-96 -81,-125c-21,-19 -21,-19 -36,17c-20,49 -20,51 16,92c28,31 36,35 63,29c17,-3 34,-9 38,-13zm-1888,-143c4,-84 9,-169 12,-190c5,-35 3,-38 -50,-77c-30,-23 -59,-41 -63,-41c-5,0 -28,87 -52,193c-24,105 -46,197 -48,203c-4,10 111,49 188,63c4,0 10,-68 13,-151zm544,143c10,-6 6,-15 -19,-34c-19,-14 -35,-24 -37,-22c-2,2 -1,17 3,34c7,31 26,39 53,22zm208,-65c65,-35 67,-39 54,-100c-17,-82 -145,-247 -222,-287l-37,-19l-11,39c-5,21 -17,44 -25,51c-13,11 -4,35 72,180c84,164 87,167 113,160c14,-4 39,-15 56,-24zm-189,-138c-70,-134 -89,-163 -111,-169c-14,-4 -26,-6 -26,-4c0,11 85,196 108,235c30,52 77,100 99,100c10,0 -11,-50 -70,-162zm-733,-55c39,-172 45,-209 34,-220c-12,-11 -30,18 -112,178c-54,104 -96,192 -94,194c5,6 112,55 119,55c3,0 27,-93 53,-207zm-91,-52l97,-188l-44,-37c-24,-20 -47,-36 -50,-36c-13,0 -269,352 -260,358c49,36 139,92 148,92c6,0 55,-85 109,-189zm751,117c-8,-26 -77,-161 -71,-138c3,8 10,42 17,75c15,66 25,85 47,85c10,0 12,-6 7,-22zm-59,-10c-2,-7 -13,-58 -25,-113c-24,-107 -36,-128 -81,-144c-25,-9 -31,-7 -49,16c-47,60 -18,132 81,201c41,29 75,52 76,52c1,0 1,-6 -2,-12zm-836,-207l132,-175l-49,-50c-27,-28 -56,-61 -64,-74c-16,-23 -17,-22 -173,145l-157,168l87,83c47,46 88,82 90,81c1,-2 62,-82 134,-178zm-184,-148c71,-76 139,-150 152,-164l23,-26l-26,-46c-14,-26 -28,-47 -30,-47c-12,0 -364,272 -364,281c0,12 101,139 110,139c4,0 65,-62 135,-137zm1914,1c6,-15 10,-27 9,-28c-2,-1 -16,-10 -31,-20c-16,-9 -40,-16 -55,-14l-27,3l39,43c21,23 42,42 46,42c4,0 12,-12 19,-26zm-1974,-173c98,-74 175,-136 169,-138c-13,-4 -427,172 -431,184c-6,17 57,104 70,97c6,-4 93,-69 192,-143zm2025,65c0,-26 -9,-42 -37,-70c-21,-20 -40,-36 -44,-36c-7,0 -43,90 -38,94c8,6 105,45 112,46c4,0 7,-15 7,-34zm-100,14c-20,-13 -33,-13 -25,0c3,6 14,10 23,10c15,0 15,-2 2,-10zm-1960,-155c102,-43 188,-81 192,-84c7,-6 -12,-84 -23,-96c-10,-9 -471,98 -476,111c-2,6 10,48 27,93l31,81l32,-14c18,-7 115,-48 217,-91zm1760,-13c0,-49 -4,-63 -28,-92l-29,-34l-49,14c-27,7 -51,15 -53,17c-6,5 141,153 151,153c5,0 8,-26 8,-58zm364,42c16,-41 7,-63 -31,-73c-74,-21 -80,-10 -32,50c33,41 53,49 63,23zm34,-121c15,-48 38,-201 31,-208c-7,-6 -249,-38 -254,-33c-2,2 24,41 57,87c52,71 59,86 50,104c-28,57 -26,65 20,75c77,17 84,16 96,-25zm-2233,-57c130,-30 238,-56 239,-58c1,-1 0,-43 -3,-93c-5,-82 -8,-90 -26,-89c-41,4 -480,56 -492,59c-8,3 -4,36 13,117c13,62 24,114 24,116c0,4 5,3 245,-52zm2275,-287l0,-112l-172,7c-95,4 -192,9 -215,13l-43,5l23,18c12,10 44,48 72,84c27,36 56,66 65,67c8,0 56,7 105,14c50,7 107,13 128,14l37,1l0,-111zm-2275,55c121,-15 223,-29 226,-33c4,-3 10,-26 13,-51l7,-46l-233,-12c-128,-7 -250,-12 -270,-12l-38,0l0,96l0,96l38,-6c20,-3 136,-18 257,-32zm233,-149c-8,-8 -499,-157 -503,-153c-2,2 -7,31 -11,66l-7,62l34,1c32,1 448,25 478,28c8,0 12,-1 9,-4zm35,-62c9,-26 15,-48 14,-49c-87,-50 -482,-243 -488,-237c-13,13 -61,165 -54,172c5,5 484,156 506,160c4,1 14,-20 22,-46zm1906,30l93,-6l-6,-52c-8,-67 -25,-115 -41,-115c-44,0 -213,69 -310,126l-110,66l140,-6c77,-4 182,-9 234,-13zm-1803,-260c-1,0 -102,-67 -226,-147l-225,-146l-17,22c-39,52 -100,180 -91,189c6,6 115,63 243,128l233,119l42,-82c23,-44 41,-82 41,-83zm449,-3c4,-6 -1,-33 -10,-61l-17,-50l-41,24c-23,14 -43,29 -45,35c-3,11 75,62 95,62c6,0 15,-5 18,-10zm-377,-90c-2,-3 -75,-72 -163,-155c-88,-82 -176,-164 -196,-182l-36,-34l-57,72c-31,39 -55,76 -53,82c2,6 102,75 223,154l219,143l33,-37c18,-20 31,-39 30,-43zm432,-11c0,-27 -2,-29 -27,-23c-38,9 -38,9 -24,56l13,43l19,-24c10,-13 19,-36 19,-52zm864,31c132,-38 368,-124 373,-136c3,-9 -71,-134 -103,-173c-3,-3 -56,30 -312,196l-112,74l15,29c19,37 40,38 139,10zm-1291,-58c-10,-16 -76,-119 -148,-230c-71,-111 -135,-201 -140,-202c-6,0 -30,20 -54,44l-43,44l78,74c138,130 319,298 322,298c2,0 -4,-13 -15,-28zm73,-18c19,-15 34,-31 34,-36c0,-16 -211,-508 -219,-508c-9,0 -111,68 -138,92l-21,20l36,57c117,184 262,401 267,401c4,0 22,-12 41,-26zm1268,-116c234,-151 223,-129 121,-236l-64,-67l-43,41c-24,22 -108,101 -186,174l-144,134l46,43c24,24 50,43 56,43c6,0 102,-59 214,-132zm-1050,-20c-2,-16 -153,-510 -158,-515c-9,-10 -229,85 -224,97c2,4 52,122 111,263l109,255l81,-44c45,-24 81,-49 81,-56zm787,-169c80,-123 145,-226 143,-228c-7,-8 -176,-81 -188,-81c-11,0 -223,488 -215,493c24,15 96,45 104,43c5,-1 75,-103 156,-227zm116,55c92,-87 174,-163 182,-170c12,-10 2,-20 -58,-59c-40,-26 -76,-43 -81,-39c-4,5 -64,96 -134,203c-114,177 -124,195 -108,207c9,7 20,14 24,14c4,0 83,-70 175,-156zm-288,-132c57,-134 101,-245 99,-247c-10,-9 -171,-54 -203,-57l-38,-3l-77,250l-76,250l45,13c25,7 66,21 91,31c25,10 48,16 51,12c3,-3 52,-115 108,-249zm-510,227c21,-8 23,-14 18,-47c-3,-20 -18,-140 -33,-267c-15,-126 -28,-232 -30,-233c-3,-4 -95,13 -156,29c-21,5 -38,15 -38,21c0,6 35,125 77,265l77,254l31,-7c16,-4 41,-11 54,-15zm90,-276c17,-139 31,-259 31,-267c0,-13 -13,-16 -62,-16c-35,0 -68,4 -74,8c-8,5 -4,71 17,242c34,280 38,305 49,294c4,-5 22,-122 39,-261zm105,245c9,-10 156,-511 152,-515c-9,-9 -206,-16 -206,-7c-1,5 -16,128 -34,273l-32,263l59,-5c32,-3 60,-7 61,-9z"/>
  </g>
 </g>
</svg>